<svg width="16" height="15" viewBox="0 0 16 15" fill="none" xmlns="http://www.w3.org/2000/svg">
<path d="M14.3055 1.1667H5.86108V6.33892H4.80553V1.1667C4.80553 0.88675 4.91674 0.618265 5.11469 0.42031C5.31265 0.222355 5.58113 0.111145 5.86108 0.111145H14.3055C14.5855 0.111145 14.854 0.222355 15.0519 0.42031C15.2499 0.618265 15.3611 0.88675 15.3611 1.1667V13.8334C15.3611 14.1133 15.2499 14.3818 15.0519 14.5798C14.854 14.7777 14.5855 14.8889 14.3055 14.8889H5.86108C5.58113 14.8889 5.31265 14.7777 5.11469 14.5798C4.91674 14.3818 4.80553 14.1133 4.80553 13.8334H14.3055V1.1667Z" fill="white"/>
<path d="M3.13773 7.12001C3.2387 7.03355 3.36857 6.98837 3.5014 6.9935C3.63423 6.99863 3.76023 7.05369 3.85422 7.14769C3.94822 7.24168 4.00328 7.36768 4.00841 7.50051C4.01354 7.63334 3.96836 7.76321 3.8819 7.86418L2.09801 9.61112H9.75079C9.89076 9.61112 10.025 9.66673 10.124 9.76571C10.223 9.86468 10.2786 9.99893 10.2786 10.1389C10.2786 10.2789 10.223 10.4131 10.124 10.5121C10.025 10.6111 9.89076 10.6667 9.75079 10.6667H2.09801L3.8819 12.4928C3.93715 12.5401 3.98202 12.5983 4.0137 12.6638C4.04538 12.7293 4.06318 12.8006 4.06599 12.8733C4.06879 12.946 4.05655 13.0185 4.03001 13.0862C4.00348 13.1539 3.96323 13.2154 3.9118 13.2669C3.86036 13.3183 3.79885 13.3585 3.73112 13.3851C3.6634 13.4116 3.59092 13.4239 3.51823 13.421C3.44555 13.4182 3.37423 13.4004 3.30875 13.3688C3.24327 13.3371 3.18505 13.2922 3.13773 13.237L0.0555105 10.1758L3.13773 7.12001Z" fill="white"/>
</svg>
